<svg xmlns="http://www.w3.org/2000/svg" xmlns:xlink="http://www.w3.org/1999/xlink" version="1.1" x="0px" y="0px" viewBox="0 0 100 100" enable-background="new 0 0 100 100" xml:space="preserve"><g><path d="M92.125,47.682c-0.332,0-0.671,0.053-1.008,0.158l-16.267,5.083v1.408v1.406v25.73v1.408v1.407l16.267,5.083   c0.337,0.105,0.676,0.158,1.008,0.158c1.64,0,2.875-1.295,2.875-3.013V50.694C95,48.977,93.765,47.682,92.125,47.682z"></path><path d="M68.58,43.08H8.584C6.607,43.08,5,44.688,5,46.665v43.876c0,1.977,1.607,3.584,3.584,3.584H68.58   c1.977,0,3.584-1.607,3.584-3.584v-6.258v-1.407V54.331v-1.408v-6.258C72.164,44.688,70.557,43.08,68.58,43.08z M14.399,87.409   c-1.479,0-2.684-1.203-2.684-2.684c0-1.479,1.205-2.683,2.684-2.683c1.479,0,2.684,1.203,2.684,2.683   C17.083,86.206,15.879,87.409,14.399,87.409z"></path><path d="M24.648,27.373c-0.022,0.331-0.104,0.661-0.254,0.975c-0.028,0.058-0.056,0.116-0.086,0.173   c-0.032,0.056-0.068,0.108-0.104,0.162c-0.193,0.289-0.434,0.53-0.706,0.717l1.541,2.62l2.51,4.268l0.002,0.002l0.003-0.007   c1.325-1.085,2.478-2.425,3.372-4.002c0.894-1.577,1.463-3.277,1.714-4.971h-0.01l-4.946,0.039L24.648,27.373z"></path><path d="M15.911,28.911c-0.038-0.052-0.076-0.102-0.112-0.156c-0.034-0.055-0.063-0.111-0.095-0.168   c-0.167-0.304-0.268-0.629-0.307-0.958l-3.035,0.143l-4.946,0.232l-0.003,0.001l0.004,0.007c0.344,1.678,0.993,3.322,1.973,4.848   c0.979,1.525,2.217,2.821,3.6,3.832l0.005-0.009l2.269-4.394l1.393-2.7C16.373,29.416,16.119,29.188,15.911,28.911z"></path><path d="M49.108,20.335c0.114-0.382,0.3-0.747,0.561-1.076c0.048-0.061,0.095-0.12,0.147-0.178c0.053-0.059,0.109-0.11,0.165-0.163   c0.305-0.288,0.652-0.506,1.023-0.653l-1.103-3.492l-1.798-5.691l-0.002-0.004l-0.007,0.008c-1.85,0.918-3.564,2.18-5.04,3.792   c-1.476,1.611-2.604,3.455-3.354,5.377l0.012,0.003l5.819,1.287L49.108,20.335z"></path><path d="M19.711,21.111c0.063-0.006,0.127-0.012,0.192-0.013c0.064-0.001,0.128,0.003,0.191,0.007   c0.347,0.019,0.677,0.104,0.977,0.244l1.477-2.655l2.407-4.327l0.001-0.003h-0.009c-1.607-0.592-3.346-0.906-5.158-0.877   s-3.566,0.4-5.153,1.043l0.004,0.008l2.542,4.243l1.562,2.605C19.038,21.238,19.364,21.143,19.711,21.111z"></path><path d="M55.774,32.412l-1.211-3.456c-0.386,0.104-0.794,0.138-1.209,0.091c-0.077-0.01-0.153-0.019-0.23-0.032   c-0.077-0.015-0.15-0.035-0.226-0.055c-0.405-0.106-0.773-0.287-1.093-0.525l-2.389,2.777l-3.892,4.524l-0.003,0.003l0.01,0.002   c1.754,1.089,3.731,1.882,5.878,2.288c2.147,0.405,4.308,0.394,6.338,0.02l-0.004-0.011L55.774,32.412z"></path><path d="M68.739,18.686c-0.642-2.089-1.658-3.996-2.935-5.618l-0.008,0.009l-4.061,4.364l-2.495,2.681   c0.272,0.292,0.493,0.639,0.645,1.028c0.027,0.073,0.056,0.145,0.079,0.219c0.022,0.074,0.039,0.149,0.057,0.226   c0.094,0.407,0.105,0.817,0.044,1.212l3.57,0.819l5.816,1.337h0.004l-0.003-0.01C69.6,22.893,69.381,20.774,68.739,18.686z"></path><path d="M19.752,11.756C11.86,11.883,5.542,18.406,5.669,26.3c0.127,7.893,6.651,14.211,14.545,14.083   c7.893-0.126,14.21-6.651,14.083-14.544S27.645,11.629,19.752,11.756z M15.263,32.289l-2.269,4.394l-0.005,0.009   c-1.383-1.011-2.621-2.307-3.6-3.832c-0.979-1.525-1.629-3.17-1.973-4.848l-0.004-0.007l0.003-0.001l4.946-0.232l3.035-0.143   c0.039,0.329,0.14,0.654,0.307,0.958c0.031,0.057,0.061,0.113,0.095,0.168c0.036,0.055,0.074,0.104,0.112,0.156   c0.208,0.277,0.462,0.505,0.744,0.678L15.263,32.289z M14.64,14.538l-0.004-0.008c1.587-0.643,3.341-1.014,5.153-1.043   s3.551,0.285,5.158,0.877h0.009l-0.001,0.003l-2.407,4.327l-1.477,2.655c-0.3-0.14-0.63-0.226-0.977-0.244   c-0.063-0.004-0.127-0.008-0.191-0.007c-0.065,0.001-0.129,0.007-0.192,0.013c-0.347,0.031-0.673,0.127-0.968,0.275l-1.562-2.605   L14.64,14.538z M20.025,28.753c-1.479,0.023-2.702-1.16-2.727-2.641s1.16-2.702,2.641-2.727c1.479-0.024,2.703,1.161,2.728,2.64   C22.69,27.506,21.506,28.729,20.025,28.753z M32.641,27.31c-0.251,1.693-0.82,3.394-1.714,4.971   c-0.895,1.577-2.047,2.917-3.372,4.002l-0.003,0.007l-0.002-0.002l-2.51-4.268l-1.541-2.62c0.272-0.187,0.513-0.428,0.706-0.717   c0.035-0.054,0.071-0.106,0.104-0.162c0.03-0.057,0.058-0.115,0.086-0.173c0.149-0.313,0.231-0.644,0.254-0.975l3.036-0.024   l4.946-0.039H32.641z"></path><path d="M63.094,8.317c-8.165-4.885-18.782-2.214-23.667,5.951c-4.884,8.167-2.214,18.783,5.952,23.668   c8.166,4.884,18.783,2.214,23.667-5.952S71.261,13.202,63.094,8.317z M51.46,21.466c0.916-1.531,2.905-2.032,4.438-1.115   c1.53,0.915,2.031,2.905,1.116,4.437c-0.916,1.531-2.907,2.032-4.438,1.116C51.044,24.988,50.544,22.997,51.46,21.466z    M39.713,18.257l-0.012-0.003c0.751-1.922,1.879-3.766,3.354-5.377c1.476-1.612,3.19-2.874,5.04-3.792l0.007-0.008l0.002,0.004   l1.798,5.691l1.103,3.492c-0.371,0.147-0.719,0.365-1.023,0.653c-0.056,0.053-0.112,0.104-0.165,0.163   c-0.053,0.058-0.1,0.117-0.147,0.178c-0.261,0.329-0.446,0.694-0.561,1.076l-3.576-0.791L39.713,18.257z M51.41,38.029   c-2.146-0.406-4.124-1.199-5.878-2.288l-0.01-0.002l0.003-0.003l3.892-4.524l2.389-2.777c0.319,0.238,0.688,0.419,1.093,0.525   c0.075,0.02,0.148,0.04,0.226,0.055c0.077,0.014,0.153,0.022,0.23,0.032c0.415,0.047,0.823,0.014,1.209-0.091l1.211,3.456   l1.97,5.626l0.004,0.011C55.718,38.423,53.558,38.435,51.41,38.029z M69.452,24.962l-5.816-1.337l-3.57-0.819   c0.062-0.395,0.05-0.805-0.044-1.212c-0.018-0.076-0.034-0.151-0.057-0.226c-0.023-0.074-0.052-0.146-0.079-0.219   c-0.151-0.39-0.372-0.736-0.645-1.028l2.495-2.681l4.061-4.364l0.008-0.009c1.276,1.622,2.293,3.529,2.935,5.618   s0.86,4.207,0.714,6.267l0.003,0.01H69.452z"></path></g></svg>