<svg xmlns="http://www.w3.org/2000/svg" xmlns:xlink="http://www.w3.org/1999/xlink" version="1.1" x="0px" y="0px" viewBox="0 0 18 18" enable-background="new 0 0 18 18" xml:space="preserve"><path d="M49,9c0-0.3,0-0.7-0.1-1h-1c-0.5-3.6-3.3-6.5-6.9-6.9v-1C40.7,0,40.3,0,40,0s-0.7,0-1,0.1v1c-3.6,0.5-6.5,3.3-6.9,6.9h-1  C31,8.3,31,8.7,31,9s0,0.7,0.1,1h1c0.5,3.6,3.3,6.5,6.9,6.9v1c0.3,0,0.7,0.1,1,0.1s0.7,0,1-0.1v-1c3.6-0.5,6.5-3.3,6.9-6.9h1  C49,9.7,49,9.3,49,9z M41,14.9V14c0-0.6-0.4-1-1-1s-1,0.4-1,1v0.9c-2.5-0.4-4.5-2.4-4.9-4.9l0.9,0c0.6,0,1-0.4,1-1s-0.4-1-1-1h-0.9  c0.4-2.5,2.4-4.5,4.9-4.9V4c0,0.6,0.4,1,1,1s1-0.4,1-1V3.1c2.5,0.4,4.5,2.4,4.9,4.9H45c-0.6,0-1,0.4-1,1s0.4,1,1,1l0.9,0  C45.5,12.5,43.5,14.5,41,14.9z"></path><path fill="#000000" d="M17.9,9C17.9,9,17.9,9,17.9,9c0-0.6-0.4-1-1-1h-0.1c-0.4-3.6-3.3-6.4-6.8-6.8V1.1c0-0.5-0.4-1-0.9-1  c0,0,0,0-0.1,0s0,0-0.1,0C8.4,0.1,8,0.6,8,1.1v0.1C4.5,1.6,1.6,4.5,1.2,8H1.1c-0.5,0-1,0.4-1,0.9c0,0,0,0,0,0.1c0,0,0,0,0,0.1  c0,0.5,0.4,0.9,1,0.9h0.1c0.4,3.6,3.3,6.4,6.8,6.8v0.1c0,0.5,0.4,1,0.9,1c0,0,0,0,0.1,0c0,0,0,0,0.1,0c0.5,0,0.9-0.4,0.9-1v-0.1  c3.6-0.4,6.4-3.3,6.8-6.8h0.1C17.4,10,17.9,9.6,17.9,9C17.9,9,17.9,9,17.9,9z M10,14.8v-0.9c0-0.5-0.4-1-1-1s-1,0.4-1,1v0.9  c-2.5-0.4-4.4-2.4-4.8-4.8l0.9,0c0.5,0,1-0.4,1-1s-0.4-1-1-1H3.2C3.6,5.5,5.5,3.6,8,3.2v0.9c0,0.5,0.4,1,1,1s1-0.4,1-1V3.2  c2.5,0.4,4.4,2.4,4.8,4.8h-0.9c-0.5,0-1,0.4-1,1s0.4,1,1,1l0.9,0C14.4,12.5,12.5,14.4,10,14.8z"></path></svg>